Patient4_TMGait_0pt6_01_right_15_EMG.mot
version=1
nRows=40
nColumns=33
inDegrees=no
endheader
time	1LAddLong	2LGlutMax	3LGlutMed	4LIliopsoas	5LSemiMemb	6LBicFemLong	7LRecFem	8LVastMed	9LVastLat	10LGasMed	11LTibAnt	12lTibPost	13LPeroneusLong	14LSol	15LExtDigLong	16LFlexDigLong	17RAddLong	18RGlutMax	19RGlutMed	20RIliopsoas	21RSemiMemb	22RBicFemLong	23RRecFem	24RVastMed	25RVastLat	26RGasMed	27RTibAnt	28RTibPost	29RPeroneusLong	30RSol	31RExtDigLong	32RFlexDigLong
17.62	-0.02243	-0.1442	0.033112	-0.023193	-0.049591	0.089417	0.046997	0.010071	0.074005	-0.074921	0.19623	0.004425	0.27161	0.028534	-0.3006	-0.001831	-0.056305	0.073547	0.10498	0.31204	-0.0383	-0.00473	0.25009	0.037079	-0.025635	-0.005188	-0.12589	-0.014801	-0.009155	0.062561	0.014496	-0.001984
17.621	-0.018158	-0.13596	0.033112	-0.020752	-0.064087	0.055237	0.01236	0.007172	0.068817	-0.048523	0.082703	0.009308	0.065918	-0.03891	0.18188	-0.003662	-0.076904	0.009155	-0.1329	0.31097	-0.020905	-0.003662	0.14023	-0.058594	-0.022888	0.002441	0.020294	-0.007172	-0.038452	0.031128	0.011749	-0.001526
17.622	-0.019531	-0.15854	0.024414	0.014191	-0.028992	0.075226	0.00351	0.010986	0.045013	-0.016327	-0.045776	0.003815	-0.16693	-0.071259	-0.27374	-0.020142	-0.011139	0.054932	-0.14557	0.25925	0.002136	0.01236	0.14893	0.003662	0.002747	-0.003815	0.54535	-0.000458	0.10559	-0.050659	0.016632	0.002289
17.623	-0.017853	-0.16846	-0.041046	0.007782	0.020905	0.029602	-0.017242	0.014648	0.055237	0.04837	-0.026398	0.000305	-0.39719	-0.13214	-0.16357	-0.009766	-0.02182	-0.006104	-0.13763	0.15015	0.044098	0.076752	0.20706	0.035553	0.031738	-0.007477	-0.003052	0.002136	0.69519	-0.19714	0.014496	-0.006561
17.624	-0.018616	-0.20172	-0.0914	0.016785	0.023041	-0.06012	-0.032349	0.010071	0.082855	0.013428	-0.049591	-0.001373	-0.23758	-0.079041	-0.4126	-0.002899	-0.077057	-0.019684	-0.21591	-0.021362	0.032349	0.13763	0.19089	0.006561	0.007172	-0.019684	-0.11032	-0.005035	-0.002594	-0.16434	0.013733	-0.00351
17.625	-0.005798	-0.18646	-0.090179	0.001068	-0.018158	-0.088806	0.055695	0.007782	0.068359	-0.026245	-0.060577	-0.011597	-0.019226	0.10056	-0.52445	0.001068	-0.11871	0.021973	-0.090027	-0.21362	0.021515	0.17197	0.20142	-0.041199	0.017395	-0.035553	-0.12634	-0.001526	-0.53055	-0.028381	0.009003	-0.010223
17.626	-0.011292	-0.18249	0.030212	-0.00946	-0.019836	-0.1059	0.11444	0.006561	0.041809	-0.010223	-0.12283	-0.001068	0.055084	0.097198	0.14282	0	-0.1384	0.023499	0.05661	-0.2507	0.052338	0.12878	0.16663	-0.090179	0.003967	-0.028381	-0.023804	-0.000153	-0.32638	-0.048828	0.010834	-0.007782
17.627	-0.015717	-0.1683	0.014191	-0.008545	0.015259	-0.13306	0.18982	-0.005493	0.076447	-0.009766	-0.06958	-0.00061	-0.28183	-0.098572	-0.042877	-0.009003	-0.16541	0.002136	-0.044403	-0.18662	0.072632	0.071716	0.20737	-0.067444	-0.017242	-0.012207	0.14206	-0.005798	-0.22201	-0.012054	0.012207	0.013733
17.628	0.018463	-0.15747	0.068207	0.016174	0.026245	-0.15732	0.2449	-0.002136	0.078735	0.005188	-0.013885	0.006561	-0.22781	-0.12299	-0.21759	-0.006104	-0.18341	-0.016327	0.1387	-0.13641	0.045471	0.063477	0.067596	-0.076904	-0.004272	-0.011597	0.07843	-0.006866	-0.059662	0.050659	0.0177	-0.007935
17.629	0.003967	-0.1799	-0.020447	0.022583	-0.0737	-0.041962	0.20691	-0.000916	0.023956	0.026398	-0.11505	-0.001831	-0.043182	-0.08667	-0.023804	0.001678	-0.16235	-0.035553	0.0177	0.036621	0.006561	0.064087	0.062714	-0.10162	-0.000763	-0.018158	0.40985	-0.003204	0.22873	0.20035	0.006866	-0.012512
17.63	0.006409	-0.17227	0.029144	-0.006866	-0.14175	0.050812	0.14679	0.003662	-0.018616	0.049438	-0.067596	-0.000763	-0.10803	-0.12634	0.59555	-0.002747	-0.14832	-0.12344	-0.10361	0.063782	-0.010071	0.041809	-0.061493	-0.093079	-0.020447	-0.024567	0.68115	0	0.16647	0.30502	0.012207	-0.014496
17.631	0.013275	-0.17624	0.040588	0.012665	-0.12726	0.064087	0.002136	0.009766	-0.019989	0.058136	0.14023	-0.007324	-0.004883	-0.11231	0.13458	-0.006714	-0.10407	-0.02655	-0.11917	-0.12512	0.010681	-0.012207	-0.16373	-0.15091	-0.042267	-0.02655	0.50873	-0.004578	-0.13825	0.21881	0.012512	-0.007935
17.632	0.024414	-0.13565	0.093536	0.029755	0.027618	-0.010986	-0.18524	0.02243	0.013733	0.011597	0.24918	-0.004272	0.1268	-0.098572	-0.12894	0.002594	-0.062561	-0.030518	-0.20767	-0.24872	0.047302	-0.049286	-0.21759	-0.14206	-0.05249	-0.02533	0.44861	0.002441	-0.12436	0.1355	0.009918	-0.01709
17.633	0.024261	-0.16113	-0.019836	0.008545	0.11581	-0.014038	-0.22232	0.024261	0.037231	-0.04303	0.17593	-0.009308	0.16037	0.041809	0.17929	0.0354	-0.035553	-0.040436	-0.23117	-0.25421	0.024414	-0.06958	-0.10925	-0.12054	-0.07843	-0.009766	0.3006	-0.005341	0.081635	0.051117	0.004272	-0.009308
17.634	0.019379	-0.12268	0.00946	0.021057	0.059357	-0.01709	-0.10544	0.003662	0.097198	-0.042114	0.001831	-0.015259	0.13321	0.040283	0.10956	0.025635	0.001831	-0.018311	-0.25726	-0.10605	0.005341	-0.079498	0.081329	-0.076752	-0.078125	-0.002289	-0.015259	0.002747	0.41992	-0.070343	0.007477	-0.010071
17.635	0.012512	-0.15808	-0.005341	-0.023346	0.048523	-0.031586	0.001373	-0.003815	0.062408	0.00351	0.05661	-0.003204	0.30533	-0.093536	-0.033875	0.018768	-0.002136	-0.010223	-0.065765	0.1268	-0.007477	-0.070496	0.52231	-0.088959	-0.08255	0.005188	-0.12222	0.002747	0.038605	-0.13458	0.008545	0.003204
17.636	-0.009003	-0.11917	0.068665	-0.011902	0.01236	0.007935	0.041199	-0.006714	-0.023804	0.001831	0.015564	-0.006866	0.081177	-0.22659	-0.18097	0.011139	0.006409	-0.003052	0.006866	0.25864	-0.009766	-0.056763	0.68344	0.000305	-0.058594	0.012207	-0.28885	0.002441	-0.4126	-0.13733	0.010986	-0.005341
17.637	-0.002136	-0.10132	0.053864	0.009918	0.017395	-0.014801	-0.011749	-0.001984	-0.053253	-0.017548	-0.00061	-0.00473	-0.26123	-0.27496	-0.19287	-0.001221	0.008545	-0.056152	-0.13306	0.20218	0.008545	-0.057678	0.58731	0.026855	-0.024109	0.012512	-0.34439	0.001221	0.25803	-0.059814	0.001068	-0.009766
17.638	-0.003357	-0.086517	0.039368	0.01297	0.015564	0.012207	0.013428	-0.018005	0.028381	0.02533	-0.063477	-0.007019	-0.094299	-0.26733	-0.12116	-0.009918	0.01236	-0.049591	-0.015411	0.1445	-0.000916	-0.042419	0.55618	0.013275	-0.035706	0.006409	-0.62759	-0.00824	0.50095	0.062866	0.006104	-0.000305
17.639	-0.002289	-0.079193	-0.033569	0.028687	-0.001984	0.036774	0.007019	-0.004578	0.097198	0.059814	-0.065002	-0.001984	0.25452	-0.13107	-0.001373	0.007782	0.01358	-0.039673	0.12589	0.13107	-0.01236	-0.030823	0.45563	-0.014648	-0.056152	0.000458	-1.1531	-0.008087	0.29159	0.024109	0.007782	0.000153
17.64	-0.009308	-0.080872	-0.11719	0.009003	-0.003052	0.066071	-0.001068	0.000153	0.06134	0.001373	0.058289	-0.027161	0.74112	0.082855	0.050201	0.004272	0.010529	-0.06073	0.009613	0.057068	0.005646	-0.016785	0.38635	-0.081787	-0.058289	-0.006561	-1.0045	0.000305	-0.027924	-0.0383	0.005951	-0.005646
17.641	-0.00412	-0.078583	-0.014801	-0.010834	-0.000458	0.036316	-0.000763	0.01358	0	0.005951	0.071564	-0.034637	-0.18143	0.08606	-0.034332	0.011139	0.012817	-0.048065	0.094299	0.018311	0.029449	-0.02594	0.21286	-0.14648	-0.055847	-0.006561	-0.22079	-0.005341	-0.58792	-0.043793	0.015564	-0.003967
17.642	-0.026093	-0.093842	0.076904	0.005035	0.003204	0.06012	0.019531	0.005798	-0.028839	0.061798	0.10864	-0.018158	-0.66818	-0.034027	-0.079193	0.001831	0.010986	-0.11887	0.27664	-0.023193	-0.014954	-0.009155	-0.048218	-0.089417	-0.032043	-0.00061	0.55634	-0.00473	-0.20676	-0.18036	0.005493	-0.007019
17.643	-0.010529	-0.090637	-0.035553	0.001831	-0.00412	0.088196	0.057678	-0.006409	-0.029144	0.036926	0.01358	0.005188	-0.23468	-0.019226	0.053253	0.008392	0.011292	-0.13229	0.19699	-0.076294	-0.08667	0.026855	-0.22034	-0.15701	-0.040131	0.000458	0.91858	0.000305	-0.26352	-0.28946	0.006866	-0.005188
17.644	-0.032654	-0.070801	-0.042419	0.005188	-0.009155	0.055695	0.079041	-0.00824	-0.009003	0.072632	-0.037384	-0.013428	-0.10773	-0.14465	0.14572	0.012207	0.010071	-0.098572	0.08667	-0.084381	-0.14786	0.035095	-0.26093	-0.12863	-0.03952	0.0177	0.58334	-0.005646	-0.42114	-0.25589	0.001678	-0.003662
17.645	0.023499	-0.042877	0.020142	-0.005493	-0.019379	0.027161	0.10757	0.00351	0	0.0354	-0.10086	-0.000763	0.039673	-0.17517	0.23712	0.009766	-0.00412	-0.085602	0.14893	-0.13351	-0.089417	0.031281	-0.13458	-0.1091	-0.032806	-0.006104	0.16068	-0.002441	-0.28153	-0.13397	0.007019	-0.003815
17.646	0.006104	-0.048523	-0.05188	-0.012207	-0.002289	-0.036774	0.11002	-0.002899	0.033722	-0.035706	-0.032043	0.004578	-0.009613	0.00824	0.1683	0.018463	0.005951	-0.112	0.20157	-0.15762	0.11383	0.019684	-0.10117	-0.16678	-0.030212	-0.003662	-0.20157	-0.003357	0.06424	-0.11429	0.006866	-0.011139
17.647	0.004272	-0.066071	-0.07843	0.001831	0.012054	-0.070953	0.049286	-0.002594	0.11581	-0.028381	-0.007629	-0.004425	-0.13184	0.18112	0.078583	0.010376	0.021362	-0.032196	0.18539	-0.17059	0.079803	-0.007935	-0.16083	-0.10452	-0.023193	-0.015259	-0.41061	0.000916	0.25253	-0.11505	0.004883	-0.009918
17.648	-0.005951	-0.007172	-0.015564	-0.002899	0.015259	-0.06897	-0.074615	0.011597	0.033875	-0.009155	-0.032806	0.000305	-0.17334	0.28793	0.091705	0.011597	0.003052	-0.022125	0.11704	-0.13779	-0.00824	0.00351	-0.15015	0.007019	-0.016174	-0.009613	-0.65796	-0.010681	0.071411	0.054779	0.000763	-0.007935
17.649	0.007324	-0.010681	0.031891	-0.00824	0.016785	-0.081787	-0.16892	0.010834	0.062561	-0.010376	-0.031433	0.009155	-0.13702	0.22492	0.26047	0.003357	0.005188	-0.02594	0.094147	-0.040588	-0.038757	0.0177	-0.097961	-0.000916	0.018463	-0.005341	-0.69214	-0.008698	0.083313	0.27283	0.004578	-0.009003
17.65	0.004272	-0.037384	0.14267	0.006561	-0.002441	-0.02655	-0.15884	0.009766	0.093231	-0.00946	0.04776	-0.00351	0.042725	0.11932	0.19653	0.001068	0.021362	-0.017242	-0.30106	0.080719	-0.019684	0.02182	-0.052948	0.037079	0.027924	-0.010986	-0.32257	-0.003967	0.04715	0.19104	0.004425	-0.005035
17.651	0.008087	-0.030975	0.22339	0.029602	-0.038452	0.010529	-0.11353	0.001831	0.078583	0.019379	0.16769	0.01236	0.037537	-0.10361	-0.19989	-0.012207	0.053101	-0.060425	-0.27069	0.079651	-0.014648	0.025482	0.024872	0.12558	0.046082	0.00351	-0.041809	-0.007782	0.10574	-0.024872	0.002747	-0.003052
17.652	-0.012054	-0.030975	0.2179	0.031433	-0.050507	0.010223	0.001984	-0.00351	0.095978	-0.021667	0.35934	0.004578	0.07431	-0.039368	-0.33234	-0.011902	0.071564	-0.10269	-0.093536	0.077209	0.019531	-0.001068	0.05127	0.05722	0.031128	-0.003967	0.5957	-0.010529	-0.030518	-0.023041	-0.000916	-0.001678
17.653	-0.02182	-0.001984	-0.018463	0.005035	0.003052	0.010986	0.027924	0.011444	0.098114	-0.007019	0.28931	0.007172	0.12161	0.058899	-0.24139	-0.005951	0.089264	-0.10819	-0.014038	0.019684	0.022125	-0.001526	-0.079498	-0.003052	0.017548	0.001221	0.69992	-0.005188	-0.015564	-0.045776	-0.005035	-0.002289
17.654	-0.019226	0.028381	0.037079	0.007477	0.033112	-0.014496	0.001831	0.022278	0.10727	0.019836	0.083466	-0.003815	-0.089264	-0.085449	-0.15457	-0.004883	0.10086	-0.12787	0.059052	0.012817	-0.11185	0.036316	-0.11154	-0.043335	0.008698	0.006409	0.8992	-0.000916	-0.016632	-0.14923	-0.001831	0.002594
17.655	-0.016022	0.026703	0.046997	0.017395	-0.014496	-0.027161	0.063782	0.018311	0.15915	0.009155	-0.13916	-0.001831	-0.17578	0.036621	-0.057983	0.003357	0.039673	-0.10956	0.011444	-0.004578	-0.014343	0.036621	-0.090179	-0.084229	0.002747	0.002441	0.793	-0.010834	-0.12024	-0.15686	0.005035	-0.003052
17.656	-0.017853	0.039825	0.11169	0.006714	-0.048523	-0.059967	0.046082	-0.005493	0.2005	-0.015106	-0.32593	0.007172	-0.068817	-0.006561	-0.010834	0.01709	-0.019989	-0.12238	-0.082245	-0.038452	0.019684	0.015869	0.015411	-0.083008	0.011444	0.001984	0.5484	0.002289	-0.067749	-0.168	0.000763	-0.006714
17.657	-0.015259	0.027161	0.011292	0.010376	-0.071869	-0.10025	0.072174	-0.019836	0.077057	-0.048218	-0.28961	-0.002441	0.20248	-0.054321	0.22171	0.010986	0.006409	-0.084839	-0.089111	-0.034027	-0.039368	0.045013	0.12344	-0.076599	0.010071	-0.001984	-0.023956	-0.007477	-0.18341	-0.13168	0.000305	-0.003662
17.658	-0.006256	0.081177	0.022736	0.003357	-0.095673	-0.088654	0.035095	-0.00946	-0.024567	-0.057526	-0.25314	-0.000916	0.21912	0.015717	0.13306	0.015717	0.074615	-0.062561	0.35019	-0.094604	-0.20554	-0.023651	0.15778	-0.066986	-0.001068	-0.002899	-1.2407	0.00061	0.003357	-0.12177	0.002899	0.001221
17.659	0.010529	0.080109	-0.005035	0.014191	-0.050201	-0.080261	0.039215	0.006714	-0.056152	0.007324	-0.097809	0.01297	0.14526	-0.078583	-0.031433	0.006714	0.1004	-0.041199	0.8429	-0.16663	-0.33447	0.002289	0.0383	0.003052	-0.009003	-0.004883	-1.1165	-0.003357	-0.12741	-0.040894	-0.001221	-0.003967
